<svg width="20" height="20" viewBox="0 0 20 20" fill="none" xmlns="http://www.w3.org/2000/svg">
<path d="M6.99997 0H1.99999C0.895426 0 0 0.895426 0 1.99999V8.99996C0 10.1045 0.895426 10.9999 1.99999 10.9999H6.99997C8.10453 10.9999 8.99996 10.1045 8.99996 8.99996V1.99999C8.99996 0.895426 8.10453 0 6.99997 0Z" fill="white"/>
<path d="M18 0H13C11.8954 0 11 0.895426 11 1.99999V4.99998C11 6.10454 11.8954 6.99997 13 6.99997H18C19.1045 6.99997 20 6.10454 20 4.99998V1.99999C20 0.895426 19.1045 0 18 0Z" fill="white"/>
<path d="M6.99997 13H1.99999C0.895426 13 0 13.8954 0 15V18C0 19.1045 0.895426 20 1.99999 20H6.99997C8.10453 20 8.99996 19.1045 8.99996 18V15C8.99996 13.8954 8.10453 13 6.99997 13Z" fill="white"/>
<path d="M18 9H13C11.8954 9 11 9.89543 11 11V18C11 19.1045 11.8954 19.9999 13 19.9999H18C19.1045 19.9999 20 19.1045 20 18V11C20 9.89543 19.1045 9 18 9Z" fill="white"/>
</svg>
