<svg width="20" height="16" viewBox="0 0 20 16" fill="none" xmlns="http://www.w3.org/2000/svg">
<path d="M15.0005 8.9991C15.5527 8.9991 16.0004 9.44677 16.0004 9.999C16.0004 10.5118 15.6144 10.9344 15.1171 10.9922L15.0005 10.9989H3.41666L6.70844 14.2915C7.06889 14.6519 7.09661 15.2191 6.79162 15.6113L6.70844 15.7055C6.34799 16.066 5.78082 16.0937 5.38857 15.7887L5.29437 15.7055L0.294868 10.706C-0.307646 10.1035 0.0743296 9.09191 0.888285 9.00508L1.0019 8.9991H15.0005ZM14.6114 0.209683L14.7056 0.292864L19.7051 5.29236C20.3076 5.89488 19.9257 6.90649 19.1117 6.99332L18.9981 6.9993H4.9995C4.44727 6.9993 3.9996 6.55163 3.9996 5.9994C3.9996 5.48661 4.3856 5.06399 4.88289 5.00623L4.9995 4.9995H16.5833L13.2916 1.70694C12.9311 1.34649 12.9034 0.779314 13.2084 0.387062L13.2916 0.292864C13.652 -0.0675837 14.2192 -0.0953109 14.6114 0.209683Z" fill="black"/>
</svg>
