<svg width="16" height="20" viewBox="0 0 16 20" fill="none" xmlns="http://www.w3.org/2000/svg">
<path d="M13.625 1.25H11.75C11.75 0.918479 11.6183 0.600537 11.3839 0.366117C11.1495 0.131696 10.8315 0 10.5 0L5.5 0C5.16848 0 4.85054 0.131696 4.61612 0.366117C4.3817 0.600537 4.25 0.918479 4.25 1.25H2.375C1.87772 1.25 1.40081 1.44754 1.04917 1.79917C0.697544 2.15081 0.5 2.62772 0.5 3.125V18.125C0.5 18.6223 0.697544 19.0992 1.04917 19.4508C1.40081 19.8025 1.87772 20 2.375 20H13.625C14.1223 20 14.5992 19.8025 14.9508 19.4508C15.3025 19.0992 15.5 18.6223 15.5 18.125V3.125C15.5 2.62772 15.3025 2.15081 14.9508 1.79917C14.5992 1.44754 14.1223 1.25 13.625 1.25ZM5.5 1.25H10.5V1.875V2.5H5.5V1.25ZM14.25 18.125C14.25 18.2908 14.1842 18.4497 14.0669 18.5669C13.9497 18.6842 13.7908 18.75 13.625 18.75H2.375C2.20924 18.75 2.05027 18.6842 1.93306 18.5669C1.81585 18.4497 1.75 18.2908 1.75 18.125V3.125C1.75 2.95924 1.81585 2.80027 1.93306 2.68306C2.05027 2.56585 2.20924 2.5 2.375 2.5H4.25C4.25 2.83152 4.3817 3.14946 4.61612 3.38388C4.85054 3.6183 5.16848 3.75 5.5 3.75H10.5C10.8315 3.75 11.1495 3.6183 11.3839 3.38388C11.6183 3.14946 11.75 2.83152 11.75 2.5H13.625C13.7908 2.5 13.9497 2.56585 14.0669 2.68306C14.1842 2.80027 14.25 2.95924 14.25 3.125V18.125Z" fill="white"/>
<path d="M7.375 11.875C7.375 12.0408 7.44085 12.1997 7.55806 12.3169C7.67527 12.4342 7.83424 12.5 8 12.5C8.16576 12.5 8.32473 12.4342 8.44194 12.3169C8.55915 12.1997 8.625 12.0408 8.625 11.875V11.7625C9.03836 11.6125 9.38585 11.322 9.60673 10.9418C9.82762 10.5616 9.90784 10.1158 9.83337 9.68243C9.75891 9.24905 9.5345 8.85564 9.19937 8.57095C8.86424 8.28626 8.43971 8.12841 8 8.125C7.83424 8.125 7.67527 8.05915 7.55806 7.94194C7.44085 7.82473 7.375 7.66576 7.375 7.5C7.375 7.33424 7.44085 7.17527 7.55806 7.05806C7.67527 6.94085 7.83424 6.875 8 6.875H9.25C9.41576 6.875 9.57473 6.80915 9.69194 6.69194C9.80915 6.57473 9.875 6.41576 9.875 6.25C9.875 6.08424 9.80915 5.92527 9.69194 5.80806C9.57473 5.69085 9.41576 5.625 9.25 5.625H8.625C8.625 5.45924 8.55915 5.30027 8.44194 5.18306C8.32473 5.06585 8.16576 5 8 5C7.83424 5 7.67527 5.06585 7.55806 5.18306C7.44085 5.30027 7.375 5.45924 7.375 5.625V5.7375C6.96164 5.88749 6.61415 6.17798 6.39327 6.55821C6.17238 6.93843 6.09216 7.38419 6.16663 7.81757C6.24109 8.25094 6.4655 8.64436 6.80063 8.92905C7.13576 9.21374 7.56029 9.37159 8 9.375C8.16576 9.375 8.32473 9.44085 8.44194 9.55806C8.55915 9.67527 8.625 9.83424 8.625 10C8.625 10.1658 8.55915 10.3247 8.44194 10.4419C8.32473 10.5592 8.16576 10.625 8 10.625H6.75C6.58424 10.625 6.42527 10.6908 6.30806 10.8081C6.19085 10.9253 6.125 11.0842 6.125 11.25C6.125 11.4158 6.19085 11.5747 6.30806 11.6919C6.42527 11.8092 6.58424 11.875 6.75 11.875H7.375Z" fill="white"/>
<path d="M4.875 13.75H3.625C3.45924 13.75 3.30027 13.8158 3.18306 13.9331C3.06585 14.0503 3 14.2092 3 14.375C3 14.5408 3.06585 14.6997 3.18306 14.8169C3.30027 14.9342 3.45924 15 3.625 15H4.875C5.04076 15 5.19973 14.9342 5.31694 14.8169C5.43415 14.6997 5.5 14.5408 5.5 14.375C5.5 14.2092 5.43415 14.0503 5.31694 13.9331C5.19973 13.8158 5.04076 13.75 4.875 13.75Z" fill="white"/>
<path d="M12.375 13.75H7.375C7.20924 13.75 7.05027 13.8158 6.93306 13.9331C6.81585 14.0503 6.75 14.2092 6.75 14.375C6.75 14.5408 6.81585 14.6997 6.93306 14.8169C7.05027 14.9342 7.20924 15 7.375 15H12.375C12.5408 15 12.6997 14.9342 12.8169 14.8169C12.9342 14.6997 13 14.5408 13 14.375C13 14.2092 12.9342 14.0503 12.8169 13.9331C12.6997 13.8158 12.5408 13.75 12.375 13.75Z" fill="white"/>
<path d="M4.875 16.25H3.625C3.45924 16.25 3.30027 16.3158 3.18306 16.4331C3.06585 16.5503 3 16.7092 3 16.875C3 17.0408 3.06585 17.1997 3.18306 17.3169C3.30027 17.4342 3.45924 17.5 3.625 17.5H4.875C5.04076 17.5 5.19973 17.4342 5.31694 17.3169C5.43415 17.1997 5.5 17.0408 5.5 16.875C5.5 16.7092 5.43415 16.5503 5.31694 16.4331C5.19973 16.3158 5.04076 16.25 4.875 16.25Z" fill="white"/>
<path d="M12.375 16.25H7.375C7.20924 16.25 7.05027 16.3158 6.93306 16.4331C6.81585 16.5503 6.75 16.7092 6.75 16.875C6.75 17.0408 6.81585 17.1997 6.93306 17.3169C7.05027 17.4342 7.20924 17.5 7.375 17.5H12.375C12.5408 17.5 12.6997 17.4342 12.8169 17.3169C12.9342 17.1997 13 17.0408 13 16.875C13 16.7092 12.9342 16.5503 12.8169 16.4331C12.6997 16.3158 12.5408 16.25 12.375 16.25Z" fill="white"/>
</svg>
