<svg width="46" height="51" viewBox="0 0 46 51" fill="none" xmlns="http://www.w3.org/2000/svg">
<path d="M28 28C28 30.7615 25.7615 33 23 33M35.5 10.5H35.525M35.5 28C35.5 34.9035 29.9035 40.5 23 40.5C16.0964 40.5 10.5 34.9035 10.5 28C10.5 21.0965 16.0964 15.5 23 15.5C29.9035 15.5 35.5 21.0965 35.5 28ZM8 48H38C40.7615 48 43 45.7615 43 43V8C43 5.23857 40.7615 3 38 3H8C5.23857 3 3 5.23857 3 8V43C3 45.7615 5.23857 48 8 48Z" stroke="#6F6CEC" stroke-width="5" stroke-linecap="round" stroke-linejoin="round"/>
</svg>
