<svg width="53" height="53" viewBox="0 0 53 53" fill="none" xmlns="http://www.w3.org/2000/svg">
<path d="M48.75 0H3.75C1.6875 0 0 1.6875 0 3.75V48.75C0 50.8125 1.6875 52.5 3.75 52.5H48.75C50.8125 52.5 52.5 50.8125 52.5 48.75V3.75C52.5 1.6875 50.8125 0 48.75 0ZM42.0262 23.2762L25.1512 40.1512C24.42 40.8844 23.46 41.25 22.5 41.25C21.54 41.25 20.58 40.8844 19.8488 40.1512L10.4738 30.7762C9.00937 29.3119 9.00937 26.9381 10.4738 25.4738C11.9362 24.0094 14.3137 24.0094 15.7762 25.4738L22.5 32.1956L36.7238 17.9738C38.1863 16.5094 40.5637 16.5094 42.0262 17.9738C43.4906 19.4381 43.4906 21.8119 42.0262 23.2762Z" fill="#6F6CEC"/>
</svg>
