<svg width="20" height="20" viewBox="0 0 20 20" fill="none" xmlns="http://www.w3.org/2000/svg">
<path d="M10 5.89746V10L12.5641 12.5641" stroke="black" stroke-width="2" stroke-linecap="round" stroke-linejoin="round"/>
<path d="M2.14126 4.739L1.37204 4.74287C1.37416 5.16468 1.71558 5.5061 2.13739 5.50822L2.14126 4.739ZM4.74822 5.52134C5.17305 5.52348 5.51917 5.18082 5.5213 4.75599C5.52344 4.33115 5.18078 3.98503 4.75595 3.9829L4.74822 5.52134ZM2.89736 2.12431C2.89523 1.69948 2.54911 1.35683 2.12428 1.35896C1.69945 1.36109 1.35679 1.70722 1.35892 2.13205L2.89736 2.12431ZM1.617 8.75375C1.6747 8.33283 1.38026 7.9449 0.959353 7.88721C0.538461 7.82951 0.150481 8.1239 0.0927892 8.54483L1.617 8.75375ZM17.0381 2.96182C13.12 -0.956322 6.78841 -0.996004 2.89618 2.89622L3.98404 3.98408C7.26518 0.702939 12.6226 0.722006 15.9503 4.04968L17.0381 2.96182ZM2.96178 17.0382C6.87993 20.9563 13.2116 20.996 17.1038 17.1038L16.0159 16.0159C12.7347 19.297 7.37731 19.2781 4.04964 15.9504L2.96178 17.0382ZM17.1038 17.1038C20.996 13.2116 20.9563 6.87997 17.0381 2.96182L15.9503 4.04968C19.278 7.37735 19.297 12.7348 16.0159 16.0159L17.1038 17.1038ZM2.89618 2.89622L1.59733 4.19507L2.68519 5.28293L3.98404 3.98408L2.89618 2.89622ZM2.13739 5.50822L4.74822 5.52134L4.75595 3.9829L2.14513 3.96978L2.13739 5.50822ZM2.91048 4.73513L2.89736 2.12431L1.35892 2.13205L1.37204 4.74287L2.91048 4.73513ZM0.0927892 8.54483C-0.318934 11.5486 0.639887 14.7163 2.96178 17.0382L4.04964 15.9504C2.07981 13.9805 1.26831 11.2976 1.617 8.75375L0.0927892 8.54483Z" fill="black"/>
</svg>
